<svg xmlns="http://www.w3.org/2000/svg" version="1.1" xmlns:xlink="http://www.w3.org/1999/xlink" xmlns:svgjs="http://svgjs.dev/svgjs" width="1500" height="1282" viewBox="0 0 1500 1282"><g transform="matrix(1,0,0,1,-0.7498538611646381,0.5190283400809221)"><svg viewBox="0 0 289 247" data-background-color="#ffffff" preserveAspectRatio="xMidYMid meet" height="1282" width="1500" xmlns="http://www.w3.org/2000/svg" xmlns:xlink="http://www.w3.org/1999/xlink"><g id="tight-bounds" transform="matrix(1,0,0,1,0.14447184391772794,-0.09999999999999432)"><svg viewBox="0 0 288.71105631216454 247.2" height="247.2" width="288.71105631216454"><g><svg viewBox="0 0 397.4975999999999 340.34514637276754" height="247.2" width="288.71105631216454"><g><rect width="397.4975999999999" height="7.395752049577285" x="0" y="190.06730096770434" fill="#03424c" opacity="1" stroke-width="0" stroke="transparent" fill-opacity="1" class="rect-qz-0" data-fill-palette-color="primary" rx="1%" id="qz-0" data-palette-color="#03424c"></rect></g><g transform="matrix(1,0,0,1,0.9887999999999693,216.82366047690803)"><svg viewBox="0 0 395.52 123.52148589585956" height="123.52148589585956" width="395.52"><g id="textblocktransform"><svg viewBox="0 0 395.52 123.52148589585956" height="123.52148589585956" width="395.52" id="textblock"><g><svg viewBox="0 0 395.52 82.01006226650063" height="82.01006226650063" width="395.52"><g transform="matrix(1,0,0,1,0,0)"><svg width="395.52" viewBox="3.81 -37.94 235.48 48.78" height="82.01006226650063" data-palette-color="#03424c"><g class="wordmark-text-0" data-fill-palette-color="primary" id="text-0"><path d="M3.81-35.99L27.73-35.99 27.73-31.25 10.6-5.52 9.62-4.74 27.73-4.74 27.73 0 3.81 0 3.81-4.74 20.95-30.47 21.97-31.25 3.81-31.25 3.81-35.99ZM48.48-23.19L48.48-27.78Q51.12-27.54 53.24-26.37 55.37-25.2 56.88-23.34 58.4-21.48 59.2-19.09 60.01-16.7 60.01-14.11L60.01-14.11Q60.01-12.94 59.86-11.77L59.86-11.77 43.11-11.77 43.11-16.06 54.39-16.06Q54.39-17.33 53.98-18.51 53.56-19.68 52.76-20.68 51.95-21.68 50.88-22.36 49.8-23.05 48.48-23.19L48.48-23.19ZM48.29-4.59L48.29-4.59Q48.83-4.59 49.63-4.71 50.44-4.83 51.34-5.15 52.24-5.47 53.15-5.96 54.05-6.45 54.73-7.13L54.73-7.13 56.88-3.86Q55.27-1.86 53.12-0.83 50.97 0.2 47.65 0.2L47.65 0.2Q44.97 0.2 42.62-0.9 40.28-2 38.62-3.91 36.96-5.81 35.98-8.35 35.01-10.89 35.01-13.82L35.01-13.82Q35.01-16.6 35.91-19.09 36.81-21.58 38.38-23.46 39.94-25.34 42.01-26.51 44.09-27.69 46.48-27.83L46.48-27.83 46.48-23.14Q44.68-22.8 43.5-21.68 42.33-20.56 41.67-19.12 41.01-17.68 40.74-16.16 40.48-14.65 40.48-13.57L40.48-13.57Q40.48-11.67 40.94-10.03 41.4-8.4 42.38-7.2 43.36-6.01 44.8-5.3 46.24-4.59 48.29-4.59ZM68.11 0L68.11-37.94 74.02-37.94 74.02-3.27Q73.97-2.59 73.87-1.71 73.77-0.83 73.73 0L73.73 0 68.11 0ZM92.18-19.19L92.18-19.19Q92.77-16.94 92.77-14.26L92.77-14.26Q92.77-11.47 92.11-8.84 91.45-6.2 90.11-4.17 88.76-2.15 86.74-0.95 84.71 0.24 81.98 0.24L81.98 0.24Q80.27 0.24 78.71-0.15 77.14-0.54 76.02-1.22L76.02-1.22 76.02-6.3Q76.75-5.47 77.75-4.93 78.75-4.39 79.98-4.39L79.98-4.39Q81.44-4.39 82.64-5.13 83.83-5.86 84.69-7.1 85.54-8.35 86.05-10.06 86.57-11.77 86.57-13.72L86.57-13.72Q86.57-15.63 86.1-17.33 85.64-19.04 84.83-20.36 84.03-21.68 82.86-22.46 81.68-23.24 80.22-23.24L80.22-23.24Q78.95-23.24 77.9-22.73 76.85-22.22 76.02-21.24L76.02-21.24 76.02-26.46Q77.14-27.1 78.51-27.44 79.88-27.78 81.34-27.78L81.34-27.78Q82.95-27.78 84.61-27.34 86.27-26.9 87.71-25.88 89.16-24.85 90.35-23.19 91.55-21.53 92.18-19.19ZM116.25-30.42L116.25-30.42Q116.01-30.52 115.67-30.76 115.32-31.01 114.69-31.23 114.06-31.45 113.08-31.59 112.1-31.74 110.59-31.64L110.59-31.64 110.59-36.57Q112.74-36.52 114.96-36.11 117.18-35.69 118.55-34.81L118.55-34.81Q118.25-34.18 117.86-33.42 117.47-32.67 117.13-32.01 116.79-31.35 116.55-30.91 116.3-30.47 116.25-30.42ZM99.41-26.51L99.41-26.51Q99.41-28.66 100.14-30.37 100.87-32.08 102.12-33.37 103.36-34.67 105.05-35.42 106.73-36.18 108.59-36.43L108.59-36.43 108.59-31.3Q107.02-30.76 106-29.42 104.97-28.08 104.97-26.71L104.97-26.71Q104.97-24.8 106-23.63 107.02-22.46 108.59-21.58L108.59-21.58 108.59-16.02Q106.97-16.8 105.36-17.7 103.75-18.6 102.43-19.82 101.12-21.04 100.26-22.66 99.41-24.27 99.41-26.51ZM99.16-2.39L100.19-6.59Q100.87-6.2 101.92-5.83 102.97-5.47 104.09-5.15 105.22-4.83 106.34-4.64 107.46-4.44 108.44-4.44L108.44-4.44 108.59-4.44 108.59 0.2 108.49 0.2Q107.32 0.2 106.07 0.07 104.83-0.05 103.56-0.34 102.29-0.63 101.14-1.15 99.99-1.66 99.16-2.39L99.16-2.39ZM110.59-14.89L110.59-20.61Q112.2-19.87 113.88-19.04 115.57-18.21 116.94-17.02 118.3-15.82 119.18-14.11 120.06-12.4 120.06-9.86L120.06-9.86Q120.06-8.11 119.4-6.45 118.74-4.79 117.55-3.44 116.35-2.1 114.59-1.17 112.83-0.24 110.59 0.05L110.59 0.05 110.59-4.64Q114.59-5.62 114.59-9.96L114.59-9.96Q114.59-11.67 113.47-12.79 112.35-13.92 110.59-14.89L110.59-14.89ZM146.82-23.58L144.18-20.41Q143.45-21.29 142.15-22.05 140.86-22.8 138.71-22.95L138.71-22.95 138.71-27.64Q141.4-27.49 143.32-26.49 145.25-25.49 146.82-23.58L146.82-23.58ZM138.71 0.2L138.71-4.64Q140.47-4.83 141.71-5.49 142.96-6.15 144.08-7.03L144.08-7.03 146.28-3.86Q144.77-1.95 143.01-0.95 141.25 0.05 138.71 0.2L138.71 0.2ZM125.09-13.77L125.09-13.77Q125.09-16.55 125.89-18.99 126.7-21.44 128.26-23.29 129.82-25.15 131.95-26.29 134.07-27.44 136.71-27.64L136.71-27.64 136.71-22.9Q134.27-22.36 132.8-19.9 131.34-17.43 131.34-13.92L131.34-13.92Q131.34-12.11 131.7-10.52 132.07-8.94 132.75-7.71 133.44-6.49 134.44-5.66 135.44-4.83 136.71-4.64L136.71-4.64 136.71 0.2Q134.02 0.05 131.87-1.1 129.73-2.25 128.21-4.13 126.7-6.01 125.89-8.5 125.09-10.99 125.09-13.77ZM159.22-8.3L159.22-8.3Q159.22-6.1 160.12-5.03 161.02-3.96 162.73-3.76L162.73-3.76 162.73 0.2Q162.54 0.24 162.1 0.24L162.1 0.24Q160.44 0.24 158.9-0.2 157.36-0.63 156.19-1.61 155.02-2.59 154.36-4.2 153.7-5.81 153.7-8.15L153.7-8.15Q153.7-10.4 154.65-12.04 155.6-13.67 157.09-14.72 158.58-15.77 160.49-16.28 162.39-16.8 164.34-16.8L164.34-16.8 166.49-16.8 166.49-13.33 165.42-13.33Q164.44-13.33 163.37-13.13 162.29-12.94 161.36-12.4 160.44-11.87 159.83-10.86 159.22-9.86 159.22-8.3ZM174.4-8.54L174.4-8.15Q174.4-7.76 174.45-7.01 174.5-6.25 174.65-5.47 174.79-4.69 175.11-4.05 175.43-3.42 175.96-3.22L175.96-3.22 174.4 0.05Q173.77 0.05 173.06-0.24 172.35-0.54 171.69-1.07 171.03-1.61 170.57-2.27 170.1-2.93 169.86-3.71L169.86-3.71Q169.37-2.49 167.93-1.54 166.49-0.59 164.73-0.15L164.73-0.15 164.73-3.86Q165.91-4.1 166.86-4.81 167.81-5.52 168.49-6.49L168.49-6.49 168.49-16.8Q168.49-19.19 168.25-20.61 168.01-22.02 167.42-22.68 166.83-23.34 165.98-23.51 165.12-23.68 163.95-23.68L163.95-23.68Q162.88-23.68 161.93-23.41 160.97-23.14 160.17-22.78 159.36-22.41 158.75-21.97 158.14-21.53 157.85-21.29L157.85-21.29 155.65-24.66Q156.14-25.2 157.12-25.76 158.09-26.32 159.36-26.76 160.63-27.2 162.12-27.47 163.61-27.73 165.22-27.73L165.22-27.73Q166.69-27.73 168.08-27.44 169.47-27.15 170.62-26.46 171.76-25.78 172.62-24.63 173.47-23.49 173.82-21.78L173.82-21.78Q174.16-20.07 174.28-18.33 174.4-16.6 174.4-14.89L174.4-14.89 174.4-8.54ZM183.73-27.54L189.05-27.54 189.68-24.76 189.68 10.84 183.73 10.84 183.73-27.54ZM207.8-19.19L207.8-19.19Q208.38-16.94 208.38-14.16L208.38-14.16Q208.38-11.38 207.72-8.76 207.07-6.15 205.72-4.15 204.38-2.15 202.35-0.95 200.33 0.24 197.59 0.24L197.59 0.24Q195.88 0.24 194.35-0.15 192.81-0.54 191.68-1.17L191.68-1.17 191.68-6.25Q193.3-4.35 195.64-4.35L195.64-4.35Q197.1-4.35 198.3-5.08 199.5-5.81 200.35-7.06 201.21-8.3 201.69-10.03 202.18-11.77 202.18-13.72L202.18-13.72Q202.18-15.63 201.74-17.33 201.3-19.04 200.5-20.36 199.69-21.68 198.54-22.46 197.4-23.24 195.88-23.24L195.88-23.24Q194.61-23.24 193.56-22.73 192.51-22.22 191.68-21.29L191.68-21.29 191.68-26.46Q192.81-27.1 194.17-27.44 195.54-27.78 197.01-27.78L197.01-27.78Q198.62-27.78 200.28-27.34 201.94-26.9 203.38-25.88 204.82-24.85 205.99-23.19 207.16-21.53 207.8-19.19ZM227.77-23.19L227.77-27.78Q230.4-27.54 232.53-26.37 234.65-25.2 236.16-23.34 237.68-21.48 238.48-19.09 239.29-16.7 239.29-14.11L239.29-14.11Q239.29-12.94 239.14-11.77L239.14-11.77 222.39-11.77 222.39-16.06 233.67-16.06Q233.67-17.33 233.26-18.51 232.84-19.68 232.04-20.68 231.23-21.68 230.16-22.36 229.08-23.05 227.77-23.19L227.77-23.19ZM227.57-4.59L227.57-4.59Q228.11-4.59 228.91-4.71 229.72-4.83 230.62-5.15 231.53-5.47 232.43-5.96 233.33-6.45 234.02-7.13L234.02-7.13 236.16-3.86Q234.55-1.86 232.4-0.83 230.26 0.2 226.94 0.2L226.94 0.2Q224.25 0.2 221.91-0.9 219.56-2 217.9-3.91 216.24-5.81 215.27-8.35 214.29-10.89 214.29-13.82L214.29-13.82Q214.29-16.6 215.19-19.09 216.1-21.58 217.66-23.46 219.22-25.34 221.3-26.51 223.37-27.69 225.76-27.83L225.76-27.83 225.76-23.14Q223.96-22.8 222.79-21.68 221.61-20.56 220.95-19.12 220.3-17.68 220.03-16.16 219.76-14.65 219.76-13.57L219.76-13.57Q219.76-11.67 220.22-10.03 220.69-8.4 221.66-7.2 222.64-6.01 224.08-5.3 225.52-4.59 227.57-4.59Z" fill="#03424c" data-fill-palette-color="primary"></path></g></svg></g></svg></g><g transform="matrix(1,0,0,1,75.54432,101.37066972612703)"><svg viewBox="0 0 244.43135999999998 22.150816169732533" height="22.150816169732533" width="244.43135999999998"><g transform="matrix(1,0,0,1,0,0)"><svg width="244.43135999999998" viewBox="3 -38.11 432.63 39.21" height="22.150816169732533" data-palette-color="#03424c"><path d="M30.59-10.79L30.64-0.9Q26.37 0.61 21.9 0.61L21.9 0.61Q18.87 0.61 16.13-0.06 13.38-0.73 10.97-2.2 8.57-3.66 6.8-5.76 5.03-7.86 4.02-10.9 3-13.94 3-17.6L3-17.6Q3-22.19 4.49-25.89 5.98-29.59 8.56-31.95 11.13-34.3 14.55-35.55 17.97-36.79 21.9-36.79L21.9-36.79Q26.05-36.79 30.3-35.45L30.3-35.45 30.25-26.15 29.25-26.15 26.2-33.11Q24.15-34.01 20.8-34.01L20.8-34.01Q18.85-34.01 17.11-33.5 15.38-32.98 13.78-31.79 12.18-30.59 11.02-28.77 9.86-26.95 9.18-24.17 8.5-21.39 8.5-17.9L8.5-17.9Q8.5-14.18 9.58-11.15 10.67-8.11 12.55-6.14 14.43-4.17 16.91-3.11 19.38-2.05 22.19-2.05L22.19-2.05Q24.68-2.05 26.9-2.76L26.9-2.76 29.59-10.79 30.59-10.79ZM47.12-25.61L47.12-25.61Q49.9-25.61 52.12-24.66 54.34-23.71 55.88-21.98 57.42-20.26 58.24-17.85 59.06-15.43 59.06-12.5L59.06-12.5Q59.06-9.59 58.25-7.18 57.44-4.76 55.91-3.03 54.37-1.29 52.15-0.34 49.92 0.61 47.12 0.61L47.12 0.61Q44.28 0.61 42.06-0.34 39.84-1.29 38.3-3.03 36.77-4.76 35.96-7.17 35.15-9.57 35.15-12.5L35.15-12.5Q35.15-15.43 35.97-17.85 36.79-20.26 38.33-21.98 39.87-23.71 42.09-24.66 44.31-25.61 47.12-25.61ZM41.79-20.43L41.79-20.43Q39.91-17.38 39.91-12.5L39.91-12.5Q39.91-10.08 40.39-8.07 40.87-6.05 41.78-4.6 42.7-3.15 44.04-2.34 45.38-1.54 47.12-1.54L47.12-1.54Q48.85-1.54 50.22-2.34 51.58-3.15 52.52-4.6 53.46-6.05 53.96-8.07 54.47-10.08 54.47-12.5L54.47-12.5Q54.47-14.89 53.96-16.91 53.46-18.92 52.52-20.37 51.58-21.83 50.22-22.64 48.85-23.46 47.12-23.46L47.12-23.46Q43.65-23.46 41.79-20.43ZM71.8-2.76L76.29-1 76.29 0 62.79 0 62.79-1 67.3-2.76 67.3-33.59 62.79-35.35 62.79-36.35 71.31-38.11 71.8-37.6 71.8-2.76ZM88.79-2.76L93.28-1 93.28 0 79.78 0 79.78-1 84.29-2.76 84.29-33.59 79.78-35.35 79.78-36.35 88.3-38.11 88.79-37.6 88.79-2.76ZM116.52-3.39L121.03-2.15 121.03-1.25 115.74 0.39Q114.17 0.73 113.1 0.04 112.03-0.66 112.03-2.34L112.03-2.34Q108.85 0.61 104.58 0.61L104.58 0.61Q101.04 0.61 99.28-1.22 97.52-3.05 97.52-5.81L97.52-5.81Q97.52-7.89 98.45-9.48 99.38-11.08 100.82-12.04 102.26-12.99 104.26-13.62 106.26-14.26 108.12-14.5 109.98-14.75 112.03-14.79L112.03-14.79 112.03-17.14Q112.03-20.56 110.95-21.9 109.88-23.24 107.39-23.24L107.39-23.24Q105.51-23.24 102.97-22.66L102.97-22.66 100.38-16.99 99.18-16.99 99.18-23.95Q101.38-24.73 103.82-25.17 106.26-25.61 108.12-25.61L108.12-25.61Q112.15-25.61 114.33-23.99 116.52-22.36 116.52-18.65L116.52-18.65 116.52-3.39ZM106.63-2.25L106.63-2.25Q108.02-2.25 109.49-2.92 110.95-3.59 112.03-4.76L112.03-4.76 112.03-12.79Q107.14-12.57 104.58-10.8 102.02-9.03 102.02-6.3L102.02-6.3Q102.02-4.2 103.36-3.22 104.7-2.25 106.63-2.25ZM129.41-0.85L128.01 1.1 126.53 1.1 126.53-33.59 122.01-35.35 122.01-36.35 130.51-38.11 131.02-37.6 131.02-23.39Q133.56-25.61 137.66-25.61L137.66-25.61Q139.68-25.61 141.6-24.69 143.52-23.78 145.01-22.13 146.5-20.48 147.4-17.97 148.3-15.45 148.3-12.5L148.3-12.5Q148.3-9.38 147.27-6.84 146.23-4.3 144.47-2.7 142.71-1.1 140.48-0.24 138.24 0.61 135.75 0.61L135.75 0.61Q132.56 0.61 129.41-0.85L129.41-0.85ZM135.88-23.1L135.88-23.1Q133-23.1 131.02-20.8L131.02-20.8 131.02-4.2Q132.24-2.81 133.45-2.36 134.66-1.9 136.02-1.9L136.02-1.9Q138.29-1.9 139.97-3.44 141.64-4.98 142.43-7.34 143.22-9.69 143.22-12.5L143.22-12.5Q143.22-17.16 141.21-20.13 139.2-23.1 135.88-23.1ZM164.78-25.61L164.78-25.61Q167.56-25.61 169.78-24.66 172.01-23.71 173.54-21.98 175.08-20.26 175.9-17.85 176.72-15.43 176.72-12.5L176.72-12.5Q176.72-9.59 175.91-7.18 175.11-4.76 173.57-3.03 172.03-1.29 169.81-0.34 167.59 0.61 164.78 0.61L164.78 0.61Q161.95 0.61 159.73-0.34 157.5-1.29 155.97-3.03 154.43-4.76 153.62-7.17 152.82-9.57 152.82-12.5L152.82-12.5Q152.82-15.43 153.63-17.85 154.45-20.26 155.99-21.98 157.53-23.71 159.75-24.66 161.97-25.61 164.78-25.61ZM159.46-20.43L159.46-20.43Q157.58-17.38 157.58-12.5L157.58-12.5Q157.58-10.08 158.05-8.07 158.53-6.05 159.45-4.6 160.36-3.15 161.7-2.34 163.05-1.54 164.78-1.54L164.78-1.54Q166.51-1.54 167.88-2.34 169.25-3.15 170.19-4.6 171.13-6.05 171.63-8.07 172.13-10.08 172.13-12.5L172.13-12.5Q172.13-14.89 171.63-16.91 171.13-18.92 170.19-20.37 169.25-21.83 167.88-22.64 166.51-23.46 164.78-23.46L164.78-23.46Q161.31-23.46 159.46-20.43ZM189.7-2.76L195.47-1 195.47 0 180.72 0 180.72-1 185.21-2.76 185.21-21.09 180.72-22.85 180.72-23.85 189.22-25.61 189.7-25.1 189.7-22.09Q193.42-25.61 199.47-25.61L199.47-25.61 199.47-20.19 198.47-19.85 194.9-21.8Q193.81-21.8 192.39-21.33 190.97-20.85 189.7-19.95L189.7-19.95 189.7-2.76ZM221.44-3.39L225.96-2.15 225.96-1.25 220.66 0.39Q219.1 0.73 218.02 0.04 216.95-0.66 216.95-2.34L216.95-2.34Q213.77 0.61 209.5 0.61L209.5 0.61Q205.96 0.61 204.2-1.22 202.45-3.05 202.45-5.81L202.45-5.81Q202.45-7.89 203.37-9.48 204.3-11.08 205.74-12.04 207.18-12.99 209.18-13.62 211.19-14.26 213.04-14.5 214.9-14.75 216.95-14.79L216.95-14.79 216.95-17.14Q216.95-20.56 215.87-21.9 214.8-23.24 212.31-23.24L212.31-23.24Q210.43-23.24 207.89-22.66L207.89-22.66 205.3-16.99 204.11-16.99 204.11-23.95Q206.3-24.73 208.74-25.17 211.19-25.61 213.04-25.61L213.04-25.61Q217.07-25.61 219.25-23.99 221.44-22.36 221.44-18.65L221.44-18.65 221.44-3.39ZM211.55-2.25L211.55-2.25Q212.94-2.25 214.41-2.92 215.87-3.59 216.95-4.76L216.95-4.76 216.95-12.79Q212.06-12.57 209.5-10.8 206.94-9.03 206.94-6.3L206.94-6.3Q206.94-4.2 208.28-3.22 209.62-2.25 211.55-2.25ZM244.44-23.1L236.43-21.61 236.43-8.01Q236.43-6.35 236.68-5.22 236.94-4.1 237.44-3.55 237.94-3 238.5-2.8 239.06-2.59 239.85-2.59L239.85-2.59Q241.31-2.59 242.3-2.84 243.29-3.1 244.44-3.81L244.44-3.81 245.19-2.25Q241.75 0.61 237.65 0.61L237.65 0.61Q235.26 0.61 233.6-1.28 231.94-3.17 231.94-6.59L231.94-6.59 231.94-21.61 227.39-22.85 227.39-23.85 232.13-24.85 233.94-31.59 236.43-31.59 236.43-24.85 243.58-24.85 244.44-24.56 244.44-23.1ZM258.06-2.76L262.55-1 262.55 0 249.05 0 249.05-1 253.54-2.76 253.54-21.09 249.05-22.85 249.05-23.85 257.54-25.61 258.06-25.1 258.06-2.76ZM251.9-32.96L251.9-32.96Q251.9-34.23 252.79-35.12 253.69-36.01 255-36.01L255-36.01Q256.27-36.01 257.16-35.12 258.06-34.23 258.06-32.96L258.06-32.96Q258.06-31.64 257.16-30.75 256.27-29.86 255-29.86L255-29.86Q253.69-29.86 252.79-30.75 251.9-31.64 251.9-32.96ZM280.93-25L291.28-25 291.28-24 287.79-22.24 287.79-22.41 279.07 0.05 276.39 0.61 266.74-22.24 263.28-24 263.28-25 275.24-25 275.24-24 271.43-22.51 278.49-5.64 284.54-22.56 280.93-24 280.93-25ZM314.33-13.06L313.62-12.35 297.82-12.35Q297.85-9.62 298.6-7.59 299.36-5.57 300.65-4.42 301.95-3.27 303.5-2.73 305.05-2.2 306.88-2.2L306.88-2.2Q309.42-2.2 312.32-3.91L312.32-3.91 313.08-2.44Q311.03-0.63 308.98-0.01 306.93 0.61 304.32 0.61L304.32 0.61Q302.05 0.61 299.95-0.35 297.85-1.32 296.26-3.02 294.67-4.71 293.72-7.18 292.77-9.64 292.77-12.5L292.77-12.5Q292.77-15.21 293.46-17.44 294.16-19.68 295.31-21.17 296.45-22.66 297.98-23.68 299.51-24.71 301.11-25.16 302.7-25.61 304.36-25.61L304.36-25.61Q306.44-25.61 308.21-24.84 309.98-24.07 311.36-22.57 312.74-21.07 313.53-18.63 314.33-16.19 314.33-13.06L314.33-13.06ZM304.46-23.24L304.46-23.24Q301.65-23.24 299.98-21.02 298.31-18.8 297.92-14.94L297.92-14.94 309.56-14.94Q309.56-18.85 308.25-21.04 306.93-23.24 304.46-23.24ZM333.56-25.9L333.56-36.01 334.32-36.65 338.95-36.01 358.22-36.01 362.86-36.65 363.61-36.01 363.61-25.9 362.61-25.9 359.56-33.35 351.06-33.69 351.06-2.76 355.56-1 355.56 0 342.32 0 342.32-1 346.57-2.76 346.57-33.69 337.76-33.3 334.56-25.9 333.56-25.9ZM378.06-25.61L378.06-25.61Q380.85-25.61 383.07-24.66 385.29-23.71 386.83-21.98 388.37-20.26 389.18-17.85 390-15.43 390-12.5L390-12.5Q390-9.59 389.2-7.18 388.39-4.76 386.85-3.03 385.31-1.29 383.09-0.34 380.87 0.61 378.06 0.61L378.06 0.61Q375.23 0.61 373.01-0.34 370.79-1.29 369.25-3.03 367.71-4.76 366.91-7.17 366.1-9.57 366.1-12.5L366.1-12.5Q366.1-15.43 366.92-17.85 367.74-20.26 369.27-21.98 370.81-23.71 373.03-24.66 375.26-25.61 378.06-25.61ZM372.74-20.43L372.74-20.43Q370.86-17.38 370.86-12.5L370.86-12.5Q370.86-10.08 371.34-8.07 371.81-6.05 372.73-4.6 373.64-3.15 374.99-2.34 376.33-1.54 378.06-1.54L378.06-1.54Q379.8-1.54 381.16-2.34 382.53-3.15 383.47-4.6 384.41-6.05 384.91-8.07 385.41-10.08 385.41-12.5L385.41-12.5Q385.41-14.89 384.91-16.91 384.41-18.92 383.47-20.37 382.53-21.83 381.16-22.64 379.8-23.46 378.06-23.46L378.06-23.46Q374.6-23.46 372.74-20.43ZM406.45-25.61L406.45-25.61Q409.24-25.61 411.46-24.66 413.68-23.71 415.22-21.98 416.76-20.26 417.57-17.85 418.39-15.43 418.39-12.5L418.39-12.5Q418.39-9.59 417.59-7.18 416.78-4.76 415.24-3.03 413.71-1.29 411.48-0.34 409.26 0.61 406.45 0.61L406.45 0.61Q403.62 0.61 401.4-0.34 399.18-1.29 397.64-3.03 396.1-4.76 395.3-7.17 394.49-9.57 394.49-12.5L394.49-12.5Q394.49-15.43 395.31-17.85 396.13-20.26 397.67-21.98 399.2-23.71 401.42-24.66 403.65-25.61 406.45-25.61ZM401.13-20.43L401.13-20.43Q399.25-17.38 399.25-12.5L399.25-12.5Q399.25-10.08 399.73-8.07 400.2-6.05 401.12-4.6 402.04-3.15 403.38-2.34 404.72-1.54 406.45-1.54L406.45-1.54Q408.19-1.54 409.55-2.34 410.92-3.15 411.86-4.6 412.8-6.05 413.3-8.07 413.8-10.08 413.8-12.5L413.8-12.5Q413.8-14.89 413.3-16.91 412.8-18.92 411.86-20.37 410.92-21.83 409.55-22.64 408.19-23.46 406.45-23.46L406.45-23.46Q402.99-23.46 401.13-20.43ZM431.13-2.76L435.63-1 435.63 0 422.13 0 422.13-1 426.64-2.76 426.64-33.59 422.13-35.35 422.13-36.35 430.65-38.11 431.13-37.6 431.13-2.76Z" opacity="1" transform="matrix(1,0,0,1,0,0)" fill="#03424c" class="slogan-text-1" data-fill-palette-color="secondary" id="text-1"></path></svg></g></svg></g></svg></g></svg></g><g transform="matrix(1,0,0,1,113.395453245961,0)"><svg viewBox="0 0 170.70669350807793 170.70669350807793" height="170.70669350807793" width="170.70669350807793"><g><svg xmlns="http://www.w3.org/2000/svg" data-name="Layer 1" viewBox="2 2 60 60" x="0" y="0" height="170.70669350807793" width="170.70669350807793" class="icon-icon-0" data-fill-palette-color="accent" id="icon-0"><path d="M54.527 40.279A23.886 23.886 0 0 0 56 32c0-0.38-0.011-0.758-0.029-1.134A96.925 96.925 0 0 1 46.226 32.311a46.101 46.101 0 0 1-0.999 9.244C48.558 41.243 51.697 40.816 54.527 40.279Z" fill="#f5aa07" data-fill-palette-color="accent"></path><path d="M10.414 42.48a24.162 24.162 0 0 0 9.956 10.504 11.364 11.364 0 0 1 1.532-0.894A37.278 37.278 0 0 1 18.527 43.541C15.659 43.27 12.933 42.916 10.414 42.48Z" fill="#f5aa07" data-fill-palette-color="accent"></path><path d="M23 53.804c-0.167 0.077-0.342 0.15-0.5 0.231 0.165 0.071 0.333 0.134 0.5 0.202Z" fill="#f5aa07" data-fill-palette-color="accent"></path><path d="M8 32a23.886 23.886 0 0 0 1.473 8.279c2.625 0.498 5.516 0.901 8.579 1.206a46.132 46.132 0 0 1-0.986-9.25c-3.25-0.346-6.29-0.804-9.037-1.369C8.011 31.242 8 31.62 8 32Z" fill="#f5aa07" data-fill-palette-color="accent"></path><path d="M17.278 27.722a3.158 3.158 0 0 1-0.648-0.486l-4.874-4.874a2.975 2.975 0 0 1-0.487 0.392 2.899 2.899 0 0 1-1.572 0.453 23.842 23.842 0 0 0-1.485 5.656c2.696 0.563 5.692 1.02 8.9 1.366C17.144 29.387 17.203 28.552 17.278 27.722Z" fill="#f5aa07" data-fill-palette-color="accent"></path><path d="M54.283 23.152l-3.351 3.352a3.114 3.114 0 0 1-3.859 0.492 2.985 2.985 0 0 1-0.487-0.393 3.161 3.161 0 0 1-0.643 0.454c0.113 1.073 0.202 2.154 0.241 3.247a93.93 93.93 0 0 0 9.604-1.441A23.838 23.838 0 0 0 54.283 23.152Z" fill="#f5aa07" data-fill-palette-color="accent"></path><path d="M33 22.094v8.895c3.861-0.025 7.626-0.195 11.19-0.499-0.034-1.034-0.115-2.056-0.217-3.071a2.834 2.834 0 0 1-1.249-0.493 3.024 3.024 0 0 1-1.147-1.634 3.003 3.003 0 0 1-3.09-1.188 2.929 2.929 0 0 1-0.49-2.123Q35.535 22.076 33 22.094Z" fill="#f5aa07" data-fill-palette-color="accent"></path><path d="M39.94 13.454c-0.106-0.202-0.205-0.411-0.315-0.609A26.327 26.327 0 0 1 33 13.852v6.242c1.038-0.007 2.051-0.041 3.071-0.068a2.945 2.945 0 0 1-0.241-1.153 3.183 3.183 0 0 1 0.934-2.243Z" fill="#f5aa07" data-fill-palette-color="accent"></path><path d="M40.794 9.68A23.856 23.856 0 0 0 23.141 9.706l0.925 0.925A23.902 23.902 0 0 0 32 11.882 22.636 22.636 0 0 0 40.846 10.267 3.005 3.005 0 0 1 40.794 9.68Z" fill="#f5aa07" data-fill-palette-color="accent"></path><path d="M31 20.094V13.852a28.679 28.679 0 0 1-4.21-0.444 3.081 3.081 0 0 1 0.206 3.519 2.985 2.985 0 0 1-0.393 0.487 3.155 3.155 0 0 1 0.817 2.611C28.602 20.06 29.794 20.086 31 20.094Z" fill="#f5aa07" data-fill-palette-color="accent"></path><path d="M24.104 25.513a2.966 2.966 0 0 1-2.382 0.459A3.021 3.021 0 0 1 20.567 27.634a2.844 2.844 0 0 1-1.325 0.508q-0.095 1.137-0.136 2.291c3.768 0.342 7.781 0.529 11.894 0.556V22.094c-1.619-0.01-3.216-0.049-4.793-0.107a3.006 3.006 0 0 1-0.915 0.436 3.003 3.003 0 0 1-1.188 3.09Z" fill="#f5aa07" data-fill-palette-color="accent"></path><path d="M4.71 17.434a2.515 2.515 0 0 0 0.711 1.422l2.842 2.842a2.113 2.113 0 0 0 2.608 0.36 1.949 1.949 0 0 0 0.832-1.162l5.778 5.777a2.075 2.075 0 0 0 2.647 0.294 2.001 2.001 0 0 0 0.257-3.047l0.631 0.632a2.074 2.074 0 0 0 2.647 0.294 2.001 2.001 0 0 0 0.257-3.047l-0.707-0.707a2.001 2.001 0 0 0 3.047-0.257 2.075 2.075 0 0 0-0.294-2.647l-0.828-0.828a1.949 1.949 0 0 0 1.163-0.832 2.113 2.113 0 0 0-0.36-2.608L16.685 4.664a2.534 2.534 0 0 0-1.295-0.693l-2.783-0.557L11.192 2 2 11.192l2.121 2.122Zm16.792-4.772l4.001 4-1 0.999-4-3.999ZM19.491 16.5l4.091 4.091-0.909 0.909-4.091-4.091Zm-2.696 2.903l4 4-1 1-4-4ZM10.074 17.5l2 2-1 1-2-2Z" fill="#f5aa07" data-fill-palette-color="accent"></path><path d="M50.686 4.121l-4.12 0.589a2.515 2.515 0 0 0-1.422 0.711L42.302 8.263a2.113 2.113 0 0 0-0.36 2.608 1.949 1.949 0 0 0 1.162 0.832L37.327 17.481a2.075 2.075 0 0 0-0.294 2.647 2.001 2.001 0 0 0 3.047 0.257l-0.632 0.631a2.074 2.074 0 0 0-0.294 2.647 2.001 2.001 0 0 0 3.047 0.257l0.707-0.707a2.001 2.001 0 0 0 0.257 3.047 2.075 2.075 0 0 0 2.647-0.294l0.828-0.828a1.949 1.949 0 0 0 0.832 1.163 2.113 2.113 0 0 0 2.608-0.36l9.256-9.256a2.534 2.534 0 0 0 0.693-1.295l0.557-2.783L62 11.192 52.808 2ZM45.5 9.074l1 1-2 2-1-1ZM40.597 20.795l-1-1 4-4 1 1Zm2.812 2.787l-0.909-0.909 4.091-4.091 0.909 0.909Zm3.929 1.921l-0.999-1 3.999-4 1 0.999Z" fill="#f5aa07" data-fill-palette-color="accent"></path><path d="M41.399 47.372a37.38 37.38 0 0 0 1.222-3.595c-0.859 0.062-1.745 0.098-2.621 0.146v3.076h0.01a2.934 2.934 0 0 1 0.606 0.063A2.878 2.878 0 0 1 41.399 47.372Z" fill="#f5aa07" data-fill-palette-color="accent"></path><path d="M42.831 49.115A3.249 3.249 0 0 1 43 50.141v2.456c0.214 0.127 0.434 0.251 0.63 0.387A24.162 24.162 0 0 0 53.586 42.48c-2.733 0.473-5.704 0.854-8.839 1.132A38.586 38.586 0 0 1 42.831 49.115Z" fill="#f5aa07" data-fill-palette-color="accent"></path><path d="M33 36.016a3.066 3.066 0 0 1 0.504 0.028 2.949 2.949 0 0 1 2 1.356 3.026 3.026 0 0 1 2-0.356A3.082 3.082 0 0 1 40 40.111v1.808c1.053-0.057 2.116-0.106 3.144-0.186a43.93 43.93 0 0 0 1.077-9.24c-3.581 0.301-7.355 0.471-11.221 0.496Z" fill="#f5aa07" data-fill-palette-color="accent"></path><path d="M20.139 41.68c1.024 0.085 2.067 0.155 3.118 0.217A3.034 3.034 0 0 1 25.374 40.064a3.174 3.174 0 0 1 0.628-0.064 3.078 3.078 0 0 1 2.497-2.956 3.006 3.006 0 0 1 1.973 0.342A2.997 2.997 0 0 1 31 36.772V32.989c-4.119-0.027-8.141-0.214-11.928-0.554A43.954 43.954 0 0 0 20.139 41.68Z" fill="#f5aa07" data-fill-palette-color="accent"></path><path d="M23 43.862c-0.78-0.047-1.577-0.079-2.342-0.139A35.847 35.847 0 0 0 23 49.865Z" fill="#f5aa07" data-fill-palette-color="accent"></path><path d="M33.336 37.027A2.001 2.001 0 0 0 31 39v1a2.001 2.001 0 0 0-2.336-1.973A2.075 2.075 0 0 0 27 40.107V41.277a1.949 1.949 0 0 0-1.41-0.233A2.113 2.113 0 0 0 24 43.143V56.233a2.533 2.533 0 0 0 0.426 1.405L26 60v2H39V59l2.497-3.329A2.515 2.515 0 0 0 42 54.162v-4.019A2.113 2.113 0 0 0 40.41 48.044a1.949 1.949 0 0 0-1.41 0.233L39 40.107a2.075 2.075 0 0 0-1.664-2.08A2.001 2.001 0 0 0 35 40v-0.893A2.074 2.074 0 0 0 33.336 37.027ZM26.249 47.171l-0.001-5.657h1.415l0 5.657Zm5.421-1.292l-1.285 0 0-5.785h1.286Zm6.081 3.123H39.165v2.828H37.751Zm-1.993-8.926l0 5.657h-1.414l0-5.657Z" fill="#f5aa07" data-fill-palette-color="accent"></path></svg></g></svg></g><g></g></svg></g><defs></defs></svg><rect width="288.71105631216454" height="247.2" fill="none" stroke="none" visibility="hidden"></rect></g></svg></g></svg>